<?xml version="1.0" encoding="UTF-8"?>
<svg width="20px" height="20px" viewBox="0 0 20 20" version="1.1" xmlns="http://www.w3.org/2000/svg" xmlns:xlink="http://www.w3.org/1999/xlink">
    <g id="Page-1" stroke="none" stroke-width="1" fill="none" fill-rule="evenodd" stroke-linecap="round" stroke-linejoin="round">
        <g id="Group-Copy" transform="translate(-2.000000, -2.000000)" stroke="#FFFFFF" stroke-width="1.5">
            <path d="M8.62700004,19.1100001 L6.98400003,19.1100001 C5.80100002,19.1100001 4.84200002,18.1510001 4.84200002,16.9680001 L4.84200002,15.3250001 C4.84200002,15.0820001 4.74500002,14.8490001 4.57400002,14.6770001 L3.41200001,13.5150001 C2.57600001,12.6790001 2.57600001,11.323 3.41200001,10.486 L4.57400002,9.32400004 C4.74600002,9.15300004 4.84300002,8.92000004 4.84300002,8.67700004 L4.84300002,7.03400003 C4.84300002,5.85100002 5.80200002,4.89200002 6.98500003,4.89200002 L8.62800004,4.89200002 C8.87100004,4.89200002 9.10400004,4.79500002 9.27600004,4.62400002 L10.438,3.46200001 C11.274,2.62600001 12.6300001,2.62600001 13.4670001,3.46200001 L14.6290001,4.62400002 C14.8010001,4.79600002 15.0340001,4.89200002 15.2770001,4.89200002 L16.9200001,4.89200002 C18.1030001,4.89200002 19.0620001,5.85100002 19.0620001,7.03400003 L19.0620001,8.67700004 C19.0620001,8.92000004 19.1590001,9.15300004 19.3300001,9.32500004 L20.4920001,10.487 C21.3280001,11.323 21.3280001,12.6790001 20.4920001,13.5160001 L19.3300001,14.6780001 C19.1580001,14.8500001 19.0620001,15.0830001 19.0620001,15.3260001 L19.0620001,16.9690001 C19.0620001,18.1520001 18.1030001,19.1110001 16.9200001,19.1110001 L15.2770001,19.1110001 C15.0340001,19.1110001 14.8010001,19.2080001 14.6290001,19.3790001 L13.4670001,20.5410001 C12.6310001,21.3770001 11.275,21.3770001 10.438,20.5410001 L9.27600004,19.3790001 C9.10400004,19.2070001 8.87100004,19.1100001 8.62700004,19.1100001 L8.62700004,19.1100001 Z" id="Path"></path>
        </g>
    </g>
</svg>
