<svg width="20px" viewBox="0 0 17 10" version="1.1" xmlns="http://www.w3.org/2000/svg" xmlns:xlink="http://www.w3.org/1999/xlink">
    <g id="Page-1" stroke="none" stroke-width="1" fill="none" fill-rule="evenodd">
        <g id="Interface,-Essential/Left-Copy" transform="translate(-4.000000, -7.000000)">
            <g id="Group" transform="translate(12.000000, 12.000000) rotate(-180.000000) translate(-12.000000, -12.000000) translate(0.000000, 0.000000)">
                <g id="Path">
                    <polygon points="0 0 24.0000001 0 24.0000001 24.0000001 0 24.0000001"></polygon>
                    <path d="M16.0606602,12.0000001 L19.5303301,15.46967 C19.8232234,15.7625632 19.8232234,16.2374369 19.5303301,16.5303302 C19.2374369,16.8232234 18.7625632,16.8232234 18.46967,16.5303302 L14.46967,12.5303301 C14.1767767,12.2374369 14.1767767,11.7625632 14.46967,11.46967 L18.46967,7.46966995 C18.7625632,7.17677673 19.2374369,7.17677673 19.5303301,7.46966995 C19.8232234,7.76256317 19.8232234,8.2374369 19.5303301,8.53033012 L16.0606602,12.0000001 Z" fill="white" fill-rule="nonzero" transform="translate(17.000000, 12.000000) rotate(-180.000000) translate(-17.000000, -12.000000) "></path>
                    <polyline stroke="white" stroke-width="1.5" stroke-linecap="round" stroke-linejoin="round" points="8.00000005 8.00000003 4.00000003 12 8.00000005 16.0000001"></polyline>
                </g>
            </g>
        </g>
    </g>
</svg>
